<svg width="17" height="20" viewBox="0 0 17 20" fill="none" xmlns="http://www.w3.org/2000/svg">
<path d="M14.1839 10.5555C14.1746 8.95703 14.8988 7.75234 16.3613 6.86406C15.5433 5.69219 14.3058 5.04766 12.6746 4.92344C11.13 4.80156 9.44018 5.82344 8.82143 5.82344C8.16753 5.82344 6.67222 4.96563 5.49565 4.96563C3.06753 5.00313 0.487061 6.90156 0.487061 10.7641C0.487061 11.9055 0.695654 13.0844 1.11284 14.2984C1.67065 15.8969 3.68159 19.8133 5.77925 19.75C6.87612 19.7242 7.6519 18.9719 9.07925 18.9719C10.4644 18.9719 11.1816 19.75 12.405 19.75C14.5214 19.7195 16.3402 16.1594 16.8699 14.5563C14.0316 13.218 14.1839 10.6375 14.1839 10.5555ZM11.7207 3.40703C12.9089 1.99609 12.8011 0.711719 12.766 0.25C11.716 0.310938 10.5019 0.964844 9.8105 1.76875C9.04878 2.63125 8.60112 3.69766 8.69722 4.9C9.83159 4.98672 10.8675 4.40313 11.7207 3.40703Z" fill="#313131"/>
</svg>
